<?xml version="1.0" encoding="UTF-8" standalone="no"?>
<svg
   xmlns:dc="http://purl.org/dc/elements/1.1/"
   xmlns:cc="http://creativecommons.org/ns#"
   xmlns:rdf="http://www.w3.org/1999/02/22-rdf-syntax-ns#"
   xmlns:svg="http://www.w3.org/2000/svg"
   xmlns="http://www.w3.org/2000/svg"
   xml:space="preserve"
   style="enable-background:new 0 0 866 399.8;"
   viewBox="0 0 866 399.8"
   y="0px"
   x="0px"
   id="Layer_1"
   version="1.1"><metadata
     id="metadata71"><rdf:RDF><cc:Work
         rdf:about=""><dc:format>image/svg+xml</dc:format><dc:type
           rdf:resource="http://purl.org/dc/dcmitype/StillImage" /></cc:Work></rdf:RDF></metadata><defs
     id="defs69" /><style
     id="style2"
     type="text/css">
	.st0{fill-rule:evenodd;clip-rule:evenodd;fill:#FFFFFF;}
	.st1{fill-rule:evenodd;clip-rule:evenodd;fill:#E2A62A;}
	.st2{fill-rule:evenodd;clip-rule:evenodd;fill:#A44D20;}
	.st3{fill-rule:evenodd;clip-rule:evenodd;fill:#5F95C5;}
	.st4{fill-rule:evenodd;clip-rule:evenodd;fill:#BABABB;}
	.st5{fill-rule:evenodd;clip-rule:evenodd;fill:#5DA245;}
	.st6{fill:#FFFFFF;}
</style><path
     id="path4"
     d="M336.3,182.1c-12.2,0-24.4,4.6-33,13.7v-12.2H271V316h15l0.2,0c9.9,0,17.8-8,17.8-17.8v0V236  c0-18,11.7-24.1,22.1-24.1c10.4,0,21.9,6.1,21.9,24.1v80h15l0.2,0c9.8,0,17.8-8,17.8-17.8l0,0v-66.7c0-14.5-2.8-26.9-13.5-37.6  C360.2,186.5,349.5,182.1,336.3,182.1"
     class="st0" /><path
     id="path6"
     d="M696.1,316h-14.9v-80c0-18-11.4-24.1-21.9-24.1c-10.2,0-22.1,6.1-22.1,23.4v62.6l-0.1,0.4  c0,9.8-8,17.8-17.8,17.8l-0.2,0h-15v-80c0-18-11.4-24.1-21.8-24.1c-10.4,0-22.1,6.1-22.1,24.1v62.6c-0.3,9.6-8.1,17.4-17.8,17.4  l-0.2,0h-15.1V183.7h32.3v12.2c8.6-8.9,20.8-13.7,33-13.7c14.7,0,26.7,5.3,35.1,16.8c11.2-11.7,23.1-16.8,39.6-16.8  c13.2,0,25.2,4.3,32.5,11.7c10.7,10.7,14.5,23.1,14.5,37.6v66.4l-0.1,0.4c0,9.8-8,17.8-17.8,17.8L696.1,316z"
     class="st0" /><path
     id="path8"
     d="M793.6,209.1c-9.2,0-15,0.8-20.8,6.4c-3.6,3.3-4.8,8.6-4.8,16.8v7.1h26.2c11.9,0,18.5-5.6,18.5-15  C812.7,215.2,806.6,209.1,793.6,209.1 M791.3,317.3c-37.1,0-56.4-15.7-56.4-46.7c0,0,0-26.7,0-39.8c0-11.7,3.8-26.6,10.9-34  c11.5-11.5,23.1-14.6,43.8-14.6c20.8,0,32.3,3.1,43.8,14.6c7.1,7.4,10.9,15.1,10.9,26.8c0,21.1-14.5,38.4-45.2,38.4H768v6.6  c0,14.5,7.1,20.8,24.6,20.8c12.7,0,18.6-3,25.4-10.9l21.1,20.6C826.1,313.2,813.4,317.3,791.3,317.3z"
     class="st0" /><path
     id="path10"
     d="M193.7,182.1c-22.1,0-34.8,4.1-47.8,18.3L167,221c6.9-7.9,12.7-10.9,25.4-10.9c17.5,0,24.6,6.4,24.6,20.8v6.6  h-31.3c-30.7,0-45.2,17.3-45.2,38.4c0,11.7,3.8,19.4,10.9,26.8c11.5,11.5,23.1,14.6,43.8,14.6c20.8,0,32.3-3.1,43.8-14.6  c7.1-7.4,10.9-22.3,10.9-34c0-13.1,0-39.8,0-39.8C250.1,197.9,230.8,182.1,193.7,182.1 M217.1,267.2c0,8.1-1.3,13.5-4.8,16.8  c-5.9,5.6-11.7,6.4-20.8,6.4c-13,0-19.1-6.1-19.1-15.2c0-9.4,6.6-15,18.5-15h26.2V267.2z"
     class="st0" /><path
     id="path12"
     d="M0,135.1V316h17.2l0.2,0c9.9,0,17.8-8,17.8-17.8l0.1-0.6v-74.3v-88.2H0z"
     class="st0" /><polygon
     id="polygon14"
     points="143.7,135.1 103.8,135.1 38.6,223.3 107.1,316 147.5,316 76.7,223.3 "
     class="st0" /><path
     id="path16"
     d="M421.9,316h-15l0-147.9H348v-33h58.8h33h58.8v33h-58.8v130v0c0,9.8-8,17.8-17.8,17.8L421.9,316z"
     class="st0" /><path
     id="path18"
     d="M480.7,316h-15l0-80v-52.3h33v114.5l0,0c0,9.8-8,17.8-17.8,17.8L480.7,316z"
     class="st0" /><polygon
     id="polygon20"
     points="605.1,92.1 572.7,92.1 572.7,59.7 554.3,59.7 554.3,92.1 521.8,92.1 521.8,110.5 554.3,110.5   554.3,143 572.7,143 572.7,110.5 605.1,110.5 "
     class="st1" /><polygon
     id="polygon22"
     points="705.6,53.2 682.7,53.2 682.7,30.3 669.8,30.3 669.8,53.2 646.9,53.2 646.9,66.2 669.8,66.2 669.8,89   682.7,89 682.7,66.2 705.6,66.2 "
     class="st2" /><polygon
     id="polygon24"
     points="781.7,83.7 752,83.7 752,54 735.1,54 735.1,83.7 705.4,83.7 705.4,100.6 735.1,100.6 735.1,130.3   752,130.3 752,100.6 781.7,100.6 "
     class="st3" /><polygon
     id="polygon26"
     points="864,24.1 841.9,24.1 841.9,2 829.4,2 829.4,24.1 807.3,24.1 807.3,36.6 829.4,36.6 829.4,58.7   841.9,58.7 841.9,36.6 864,36.6 "
     class="st4" /><polygon
     id="polygon28"
     points="818.4,126.5 804.9,126.5 804.9,113 797.3,113 797.3,126.5 783.8,126.5 783.8,134.1 797.3,134.1   797.3,147.5 804.9,147.5 804.9,134.1 818.4,134.1 "
     class="st5" /><polygon
     id="polygon30"
     points="309.7,399 304.5,399 304.5,378.8 281.6,378.8 281.6,399 276.4,399 276.4,354.8 281.6,354.8   281.6,374.2 304.5,374.2 304.5,354.8 309.7,354.8 "
     class="st6" /><path
     id="path32"
     d="M340.8,380.2c0-2.9-0.7-5.2-2.1-6.8c-1.4-1.6-3.3-2.4-5.8-2.4c-2.4,0-4.4,0.9-6.1,2.6c-1.7,1.7-2.7,3.9-3.1,6.7  H340.8z M346,384.5h-22.3c0.1,3.5,1,6.2,2.8,8.1c1.8,1.9,4.3,2.9,7.5,2.9c3.6,0,6.8-1.2,9.8-3.5v4.7c-2.8,2-6.5,3-11,3  c-4.5,0-8-1.4-10.5-4.3c-2.6-2.9-3.8-6.9-3.8-12.1c0-4.9,1.4-8.9,4.2-12c2.8-3.1,6.3-4.6,10.4-4.6c4.1,0,7.3,1.3,9.6,4  c2.3,2.7,3.4,6.4,3.4,11.1V384.5z"
     class="st6" /><path
     id="path34"
     d="M371.2,383l-7.6,1.1c-2.3,0.3-4.1,0.9-5.3,1.7c-1.2,0.8-1.8,2.3-1.8,4.4c0,1.5,0.5,2.8,1.7,3.8  c1.1,1,2.6,1.5,4.4,1.5c2.5,0,4.6-0.9,6.2-2.6c1.6-1.8,2.5-4,2.5-6.7V383z M376.3,399h-5.1v-4.9h-0.1c-2.2,3.8-5.4,5.7-9.7,5.7  c-3.1,0-5.6-0.8-7.4-2.5c-1.8-1.7-2.7-3.9-2.7-6.6c0-5.9,3.5-9.3,10.4-10.3l9.5-1.3c0-5.4-2.2-8.1-6.5-8.1c-3.8,0-7.2,1.3-10.3,3.9  v-5.2c3.1-2,6.7-3,10.7-3c7.4,0,11.1,3.9,11.1,11.8V399z"
     class="st6" /><rect
     id="rect36"
     height="46.8"
     width="5.1"
     class="st6"
     y="352.3"
     x="385.8" /><path
     id="path38"
     d="M415.7,398.7c-1.2,0.7-2.8,1-4.7,1c-5.5,0-8.3-3.1-8.3-9.3v-18.7h-5.4v-4.3h5.4v-7.7l5.1-1.6v9.3h8v4.3h-8v17.8  c0,2.1,0.4,3.6,1.1,4.5c0.7,0.9,1.9,1.4,3.6,1.4c1.3,0,2.4-0.3,3.3-1.1V398.7z"
     class="st6" /><path
     id="path40"
     d="M448.7,399h-5.1v-18.2c0-6.6-2.4-9.9-7.3-9.9c-2.5,0-4.5,0.9-6.2,2.9c-1.7,1.9-2.5,4.3-2.5,7.3V399h-5.1v-46.8  h5.1v20.4h0.1c2.4-4,5.9-6,10.4-6c7.1,0,10.7,4.3,10.7,12.9V399z"
     class="st6" /><path
     id="path42"
     d="M479.8,397.6c-2.4,1.5-5.3,2.2-8.6,2.2c-4.5,0-8.1-1.5-10.9-4.4c-2.8-2.9-4.1-6.7-4.1-11.4  c0-5.2,1.5-9.4,4.5-12.5c3-3.1,7-4.7,11.9-4.7c2.8,0,5.2,0.5,7.3,1.5v5.2c-2.3-1.6-4.9-2.5-7.5-2.5c-3.2,0-5.9,1.2-7.9,3.5  c-2.1,2.3-3.1,5.3-3.1,9.1c0,3.7,1,6.6,2.9,8.8c1.9,2.1,4.5,3.2,7.8,3.2c2.8,0,5.3-0.9,7.8-2.7V397.6z"
     class="st6" /><path
     id="path44"
     d="M505,383l-7.6,1.1c-2.3,0.3-4.1,0.9-5.3,1.7c-1.2,0.8-1.8,2.3-1.8,4.4c0,1.5,0.5,2.8,1.7,3.8  c1.1,1,2.6,1.5,4.4,1.5c2.5,0,4.6-0.9,6.2-2.6c1.6-1.8,2.5-4,2.5-6.7V383z M510,399H505v-4.9h-0.1c-2.2,3.8-5.4,5.7-9.7,5.7  c-3.1,0-5.6-0.8-7.4-2.5c-1.8-1.7-2.7-3.9-2.7-6.6c0-5.9,3.5-9.3,10.4-10.3l9.5-1.3c0-5.4-2.2-8.1-6.5-8.1c-3.8,0-7.2,1.3-10.3,3.9  v-5.2c3.1-2,6.7-3,10.7-3c7.4,0,11.1,3.9,11.1,11.8V399z"
     class="st6" /><path
     id="path46"
     d="M536,372.5c-0.9-0.7-2.2-1-3.8-1c-2.2,0-4,1-5.4,3.1c-1.4,2-2.2,4.8-2.2,8.3V399h-5.1v-31.6h5.1v6.5h0.1  c0.7-2.2,1.8-3.9,3.3-5.2c1.5-1.2,3.1-1.9,5-1.9c1.3,0,2.3,0.1,3,0.4V372.5z"
     class="st6" /><path
     id="path48"
     d="M560.9,380.2c0-2.9-0.7-5.2-2.1-6.8c-1.4-1.6-3.3-2.4-5.8-2.4c-2.4,0-4.4,0.9-6.1,2.6c-1.7,1.7-2.7,3.9-3.1,6.7  H560.9z M566.1,384.5h-22.3c0.1,3.5,1,6.2,2.8,8.1c1.8,1.9,4.3,2.9,7.5,2.9c3.6,0,6.8-1.2,9.8-3.5v4.7c-2.8,2-6.5,3-11,3  c-4.5,0-8-1.4-10.5-4.3c-2.6-2.9-3.8-6.9-3.8-12.1c0-4.9,1.4-8.9,4.2-12c2.8-3.1,6.3-4.6,10.4-4.6c4.1,0,7.3,1.3,9.6,4  c2.3,2.7,3.4,6.4,3.4,11.1V384.5z"
     class="st6" /><path
     id="path50"
     d="M589.6,397.2v-6.1c0.7,0.6,1.5,1.2,2.5,1.7c1,0.5,2,0.9,3.1,1.3c1.1,0.3,2.2,0.6,3.3,0.8c1.1,0.2,2.1,0.3,3,0.3  c3.2,0,5.6-0.6,7.1-1.8c1.6-1.2,2.4-2.9,2.4-5.1c0-1.2-0.3-2.2-0.8-3.1c-0.5-0.9-1.3-1.7-2.2-2.4c-0.9-0.7-2-1.4-3.3-2.1  c-1.3-0.7-2.6-1.4-4.1-2.1c-1.5-0.8-3-1.6-4.3-2.4c-1.3-0.8-2.5-1.7-3.5-2.7c-1-1-1.8-2.1-2.3-3.3c-0.6-1.2-0.9-2.7-0.9-4.3  c0-2,0.4-3.8,1.3-5.3c0.9-1.5,2.1-2.7,3.5-3.7c1.4-1,3.1-1.7,4.9-2.2c1.8-0.5,3.7-0.7,5.6-0.7c4.4,0,7.5,0.5,9.5,1.6v5.8  c-2.6-1.8-6-2.7-10.1-2.7c-1.1,0-2.3,0.1-3.4,0.3c-1.1,0.2-2.1,0.6-3,1.2c-0.9,0.5-1.6,1.2-2.2,2.1c-0.6,0.8-0.8,1.9-0.8,3.1  c0,1.1,0.2,2.1,0.6,2.9c0.4,0.8,1,1.6,1.9,2.3c0.8,0.7,1.8,1.3,3,2c1.2,0.6,2.5,1.3,4.1,2.1c1.6,0.8,3.1,1.6,4.5,2.5  c1.4,0.9,2.7,1.8,3.7,2.9c1.1,1.1,1.9,2.2,2.5,3.5c0.6,1.3,0.9,2.7,0.9,4.4c0,2.2-0.4,4-1.3,5.5c-0.9,1.5-2,2.7-3.5,3.7  c-1.5,0.9-3.1,1.6-5,2.1c-1.9,0.4-3.9,0.6-6,0.6c-0.7,0-1.6-0.1-2.6-0.2c-1-0.1-2.1-0.3-3.1-0.5c-1.1-0.2-2.1-0.5-3-0.8  C591,398,590.2,397.6,589.6,397.2"
     class="st6" /><path
     id="path52"
     d="M638.2,370.9c-3.2,0-5.8,1.1-7.7,3.3c-1.9,2.2-2.8,5.3-2.8,9.1c0,3.7,1,6.7,2.9,8.8c1.9,2.2,4.5,3.2,7.7,3.2  c3.3,0,5.8-1.1,7.5-3.2c1.8-2.1,2.6-5.1,2.6-9c0-3.9-0.9-7-2.6-9.1C644,372,641.4,370.9,638.2,370.9 M637.8,399.8  c-4.7,0-8.4-1.5-11.2-4.4c-2.8-2.9-4.2-6.9-4.2-11.7c0-5.3,1.5-9.4,4.3-12.4c2.9-3,6.8-4.5,11.8-4.5c4.7,0,8.4,1.4,11,4.3  c2.6,2.9,4,6.9,4,12.1c0,5-1.4,9.1-4.3,12.1C646.4,398.2,642.6,399.8,637.8,399.8z"
     class="st6" /><path
     id="path54"
     d="M676.1,356.7c-1-0.5-2.1-0.8-3.4-0.8c-3.5,0-5.3,2.2-5.3,6.7v4.9h7.4v4.3h-7.4V399h-5v-27.3H657v-4.3h5.4v-5.1  c0-3.3,1-5.9,2.9-7.9c1.9-1.9,4.3-2.9,7.2-2.9c1.5,0,2.8,0.2,3.7,0.6V356.7z"
     class="st6" /><path
     id="path56"
     d="M696,398.7c-1.2,0.7-2.8,1-4.7,1c-5.5,0-8.3-3.1-8.3-9.3v-18.7h-5.4v-4.3h5.4v-7.7l5.1-1.6v9.3h8v4.3h-8v17.8  c0,2.1,0.4,3.6,1.1,4.5c0.7,0.9,1.9,1.4,3.6,1.4c1.3,0,2.4-0.3,3.3-1.1V398.7z"
     class="st6" /><path
     id="path58"
     d="M742.6,367.4l-9.5,31.6h-5.2l-6.5-22.6c-0.2-0.9-0.4-1.8-0.5-2.9h-0.1c-0.1,0.7-0.3,1.7-0.6,2.9L713,399H708  l-9.6-31.6h5.3l6.5,23.8c0.2,0.7,0.4,1.7,0.4,2.8h0.3c0.1-0.9,0.2-1.9,0.6-2.9l7.3-23.7h4.6l6.5,23.8c0.2,0.8,0.4,1.7,0.5,2.8h0.3  c0-0.8,0.2-1.7,0.5-2.8l6.4-23.8H742.6z"
     class="st6" /><path
     id="path60"
     d="M766,383l-7.6,1.1c-2.3,0.3-4.1,0.9-5.3,1.7c-1.2,0.8-1.8,2.3-1.8,4.4c0,1.5,0.5,2.8,1.7,3.8  c1.1,1,2.6,1.5,4.4,1.5c2.5,0,4.6-0.9,6.2-2.6c1.6-1.8,2.5-4,2.5-6.7V383z M771.1,399H766v-4.9h-0.1c-2.2,3.8-5.4,5.7-9.7,5.7  c-3.1,0-5.6-0.8-7.4-2.5c-1.8-1.7-2.7-3.9-2.7-6.6c0-5.9,3.5-9.3,10.4-10.3l9.5-1.3c0-5.4-2.2-8.1-6.5-8.1c-3.8,0-7.2,1.3-10.3,3.9  v-5.2c3.1-2,6.7-3,10.7-3c7.4,0,11.1,3.9,11.1,11.8V399z"
     class="st6" /><path
     id="path62"
     d="M797.1,372.5c-0.9-0.7-2.2-1-3.8-1c-2.2,0-4,1-5.4,3.1c-1.4,2-2.2,4.8-2.2,8.3V399h-5.1v-31.6h5.1v6.5h0.1  c0.7-2.2,1.8-3.9,3.3-5.2c1.5-1.2,3.1-1.9,5-1.9c1.3,0,2.3,0.1,3,0.4V372.5z"
     class="st6" /><path
     id="path64"
     d="M821.9,380.2c0-2.9-0.7-5.2-2.1-6.8c-1.4-1.6-3.3-2.4-5.8-2.4c-2.4,0-4.4,0.9-6.1,2.6c-1.7,1.7-2.7,3.9-3.1,6.7  H821.9z M827.1,384.5h-22.3c0.1,3.5,1,6.2,2.8,8.1c1.8,1.9,4.3,2.9,7.5,2.9c3.6,0,6.8-1.2,9.8-3.5v4.7c-2.8,2-6.5,3-11,3  c-4.5,0-8-1.4-10.5-4.3c-2.6-2.9-3.8-6.9-3.8-12.1c0-4.9,1.4-8.9,4.2-12c2.8-3.1,6.3-4.6,10.4-4.6c4.1,0,7.3,1.3,9.6,4  c2.3,2.7,3.4,6.4,3.4,11.1V384.5z"
     class="st6" /></svg>